<svg width="9" height="6" viewBox="0 0 9 6" fill="none" xmlns="http://www.w3.org/2000/svg">
<path d="M8.90479 1.11105C8.9606 1.16685 8.9885 1.23103 8.9885 1.30357C8.9885 1.37612 8.9606 1.44029 8.90479 1.49609L5.00412 5.39676C4.94832 5.45257 4.88415 5.48047 4.8116 5.48047C4.73906 5.48047 4.67488 5.45257 4.61908 5.39676L0.71841 1.49609C0.662606 1.44029 0.634705 1.37612 0.634705 1.30357C0.634705 1.23103 0.662606 1.16685 0.71841 1.11105L1.13694 0.692522C1.19274 0.636718 1.25691 0.608817 1.32946 0.608817C1.402 0.608817 1.46618 0.636718 1.52198 0.692522L4.8116 3.98214L8.10122 0.692522C8.15703 0.636718 8.2212 0.608817 8.29375 0.608817C8.36629 0.608817 8.43046 0.636718 8.48627 0.692522L8.90479 1.11105Z" fill="white"/>
</svg>
